<svg width="35" height="35" viewBox="0 0 35 35" fill="none" xmlns="http://www.w3.org/2000/svg">
<circle cx="17.5" cy="17.5" r="17.25" stroke="#757575" stroke-width="0.5"/>
<path d="M28.1836 9.25073C28.834 10.0696 29.3638 10.9849 29.7974 11.9483L17.5137 21.0286L12.3594 17.777V13.8993L17.4896 17.1267L28.1836 9.25073Z" fill="#21A038"/>
<path d="M7.10705 17.5122C7.10705 17.3195 7.10705 17.175 7.13113 16.9823L4.02409 16.8137C4.02409 17.0305 4 17.2713 4 17.4881C4 21.2214 5.5174 24.5934 7.97413 27.0501L10.19 24.8342C8.28724 22.9796 7.10705 20.3784 7.10705 17.5122Z" fill="url(#paint0_linear_1930_4269)"/>
<path d="M17.4871 7.13122C17.6798 7.13122 17.8243 7.13122 18.017 7.1553L18.1856 4.04826C17.9688 4.04826 17.728 4.02417 17.5112 4.02417C13.7779 4.02417 10.406 5.54157 7.94922 7.9983L10.1651 10.2142C12.0438 8.31141 14.645 7.13122 17.4871 7.13122Z" fill="url(#paint1_linear_1930_4269)"/>
<path d="M17.4875 27.893C17.2949 27.893 17.1503 27.893 16.9577 27.8689L16.7891 30.976C17.0058 30.976 17.2467 31.0001 17.4635 31.0001C21.1967 31.0001 24.5687 29.4827 27.0255 27.0259L24.8096 24.8101C22.955 26.7369 20.3778 27.893 17.4875 27.893Z" fill="url(#paint2_linear_1930_4269)"/>
<path d="M23.3411 8.93756L25.9664 6.98662C23.6783 5.13202 20.7158 4 17.4883 4V7.10705C19.6801 7.13113 21.7033 7.80553 23.3411 8.93756Z" fill="url(#paint3_linear_1930_4269)"/>
<path d="M31.0005 17.512C31.0005 16.6931 30.9283 15.8983 30.7837 15.0793L27.8935 17.2471C27.8935 17.3193 27.8935 17.4397 27.8935 17.512C27.8935 20.5709 26.5688 23.3166 24.4492 25.1953L26.5447 27.5075C29.2904 25.0749 31.0005 21.4861 31.0005 17.512Z" fill="#21A038"/>
<path d="M17.4877 27.893C14.4289 27.893 11.6831 26.5683 9.80441 24.4487L7.49219 26.5442C9.97301 29.2899 13.5377 31 17.4877 31V27.893Z" fill="url(#paint4_linear_1930_4269)"/>
<path d="M10.5513 9.82882L8.45584 7.5166C5.71008 9.97334 4 13.538 4 17.5121H7.10705C7.10705 14.4774 8.43176 11.7075 10.5513 9.82882Z" fill="url(#paint5_linear_1930_4269)"/>
<defs>
<linearGradient id="paint0_linear_1930_4269" x1="7.72447" y1="26.6459" x2="4.54626" y2="17.4589" gradientUnits="userSpaceOnUse">
<stop offset="0.1444" stop-color="#F2E913"/>
<stop offset="0.3037" stop-color="#E7E518"/>
<stop offset="0.5823" stop-color="#CADB26"/>
<stop offset="0.891" stop-color="#A3CD39"/>
</linearGradient>
<linearGradient id="paint1_linear_1930_4269" x1="8.87993" y1="7.73118" x2="16.9548" y2="4.65408" gradientUnits="userSpaceOnUse">
<stop offset="0.0592" stop-color="#0FA8E0"/>
<stop offset="0.5385" stop-color="#0099F9"/>
<stop offset="0.9234" stop-color="#0291EB"/>
</linearGradient>
<linearGradient id="paint2_linear_1930_4269" x1="16.607" y1="28.3154" x2="26.2315" y2="26.1402" gradientUnits="userSpaceOnUse">
<stop offset="0.1226" stop-color="#A3CD39"/>
<stop offset="0.2846" stop-color="#86C339"/>
<stop offset="0.8693" stop-color="#21A038"/>
</linearGradient>
<linearGradient id="paint3_linear_1930_4269" x1="16.8263" y1="6.05376" x2="24.8297" y2="8.52335" gradientUnits="userSpaceOnUse">
<stop offset="0.0566" stop-color="#0291EB"/>
<stop offset="0.79" stop-color="#0C8ACB"/>
</linearGradient>
<linearGradient id="paint4_linear_1930_4269" x1="8.30636" y1="26.9649" x2="16.9011" y2="30.1761" gradientUnits="userSpaceOnUse">
<stop offset="0.1324" stop-color="#F2E913"/>
<stop offset="0.2977" stop-color="#EBE716"/>
<stop offset="0.5306" stop-color="#D9E01F"/>
<stop offset="0.8023" stop-color="#BBD62D"/>
<stop offset="0.9829" stop-color="#A3CD39"/>
</linearGradient>
<linearGradient id="paint5_linear_1930_4269" x1="6.4771" y1="17.9372" x2="9.91384" y2="8.99705" gradientUnits="userSpaceOnUse">
<stop offset="0.0698" stop-color="#A3CD39"/>
<stop offset="0.2599" stop-color="#81C55F"/>
<stop offset="0.9216" stop-color="#0FA8E0"/>
</linearGradient>
</defs>
</svg>
