<svg width="35" height="35" viewBox="0 0 35 35" fill="none" xmlns="http://www.w3.org/2000/svg">
<circle cx="17.5" cy="17.5" r="17.25" stroke="#757575" stroke-width="0.5"/>
<path fill-rule="evenodd" clip-rule="evenodd" d="M32.8104 15.6549L33.1998 14.3981L31.9018 14.4414C31.8153 14.4414 30.9932 14.4414 30.2144 13.878C30.2577 13.878 30.3009 13.878 30.3875 13.878C31.1663 13.878 31.945 13.4013 32.2479 12.7079L32.8104 11.4944C32.1181 11.4944 31.4691 11.4077 31.4691 11.4077C31.4691 11.4077 30.9499 11.3644 30.3875 10.7576C29.9548 10.3242 29.4356 10.1075 28.8732 10.1075C28.6568 10.1075 28.3972 10.1509 28.2242 10.1942C28.2674 10.1075 28.2674 10.0209 28.3107 9.84751C28.4838 8.67737 27.7482 7.76726 27.7482 7.76726L26.7531 6.55377L26.1474 7.94061C26.1474 7.94061 26.0176 8.28732 25.7147 8.46067C25.6282 8.02729 25.4551 7.55056 25.0225 7.11718C24.2437 6.29374 23.2053 6.12039 22.6861 6.12039C22.4698 6.12039 22.2534 6.16372 22.2102 6.16372L21.042 6.38042C21.0852 6.12039 21.2583 5.687 21.5179 5.25361L22.1669 4.21348L20.5228 4.38684L20.0036 3.26003L19.0085 3.95345L18.0999 3L17.148 3.95345L16.1096 3.43339L15.6337 4.51685L13.9896 4.30016L14.6819 5.34029C14.9415 5.77368 15.1145 6.2504 15.1578 6.46709L14.0329 6.2504H13.9896C13.9463 6.2504 13.7733 6.20706 13.5137 6.20706C12.9945 6.20706 11.9994 6.33708 11.1773 7.20385C10.7446 7.68058 10.5283 8.1573 10.485 8.54735C10.2254 8.41734 10.0524 8.07063 10.0524 8.07063L9.44665 6.68379L8.45153 7.89727C8.32174 8.02729 7.75928 8.89406 7.88907 9.93419C7.88907 10.0209 7.93234 10.1075 7.97561 10.2809C7.80254 10.1509 7.54294 10.1075 7.32661 10.1075C6.76415 10.1075 6.24496 10.3242 5.8123 10.7576C5.24984 11.321 4.73065 11.3644 4.73065 11.3644C4.73065 11.3644 4.21145 11.451 3.3894 11.451L3.95186 12.7079C4.29798 13.4013 5.03351 13.878 5.8123 13.878C5.85557 13.878 5.89883 13.878 5.98536 13.878C5.24984 14.4414 4.42778 14.4414 4.34125 14.4414L3 14.3981L3.43266 15.6549C3.60573 16.305 4.34125 17.3884 5.59597 17.4751C5.46617 18.0819 5.12004 18.7319 4.47105 19.0353L3.43266 19.4254L3.95186 20.3788C4.21145 20.8989 4.99024 21.4623 5.98536 21.4623C6.20169 21.4623 6.41803 21.4623 6.63436 21.4189C6.67762 21.6356 6.72089 21.8957 6.80742 22.1124C7.06702 23.0225 6.85069 23.6726 6.85069 23.6726L6.37476 24.6693L7.45641 24.9294C7.45641 24.9294 7.80254 25.0161 8.19194 25.0161C8.365 25.0161 8.58133 25.0161 8.71113 24.9727C8.84093 24.9294 8.92746 24.9294 9.10053 24.886C9.23032 25.1027 9.44666 25.3628 9.61972 25.5795C10.312 26.2729 11.3071 26.6629 12.5186 26.6629H13.3839L11.5667 27.3997L12.9512 28.0498C13.4704 28.2665 14.0761 28.6132 14.6819 28.7865L14.5088 29.2632L14.9847 29.4799C15.028 29.4799 15.9798 29.9133 17.4509 30C17.4509 30 17.8403 30 18.0134 30C18.1864 30 18.5758 30 18.5758 30C20.1334 29.9133 20.9987 29.4799 21.042 29.4799L21.5179 29.2632L21.3448 28.7865C21.9506 28.5698 22.5996 28.2665 23.0755 28.0498L24.4167 27.3997L22.5996 26.6629H23.5082C24.7629 26.6629 25.758 26.2729 26.407 25.5795C26.58 25.4061 26.7964 25.1461 26.9262 24.886C27.0127 24.9294 27.1425 24.9727 27.3156 24.9727C27.4886 25.0161 27.6617 25.0161 27.8348 25.0161C28.2674 25.0161 28.5703 24.9294 28.5703 24.9294L29.6519 24.6693L29.176 23.6726C29.176 23.6292 28.9164 23.0225 29.2193 22.1124C29.3058 21.8957 29.3491 21.6356 29.3923 21.4189C29.5654 21.4623 29.825 21.4623 30.0413 21.4623C31.2961 21.4623 31.945 20.5522 32.0748 20.3355L32.594 19.382L31.5989 18.9486C30.9067 18.6886 30.6038 17.9952 30.474 17.3884C31.9018 17.3451 32.5508 16.2616 32.8104 15.6549Z" fill="#FFFFFE"/>
<path fill-rule="evenodd" clip-rule="evenodd" d="M18.0993 6.85718C17.0609 6.85718 16.2821 7.20389 16.1523 7.59394L18.0993 8.37403L20.1328 7.59394C19.9165 7.16055 19.0944 6.85718 18.0993 6.85718Z" fill="#FFFFFE"/>
<path fill-rule="evenodd" clip-rule="evenodd" d="M18.142 27.7465C17.493 27.7465 16.5844 27.6165 16.195 27.5298L15.6758 28.8733C16.0219 29.0033 17.1468 29.22 18.0987 29.22C19.0938 29.22 20.2187 29.0033 20.5216 28.8733L20.0024 27.5298C19.613 27.5731 18.7477 27.7465 18.142 27.7465Z" fill="#FFFFFE"/>
<path fill-rule="evenodd" clip-rule="evenodd" d="M21.9061 26.3596C21.5167 26.5763 20.6947 26.8797 20.2188 27.053L20.6514 28.1798C21.3869 28.0065 21.9927 27.7031 22.5119 27.4864L21.6898 27.2264L21.9061 26.3596Z" fill="#FFFFFE"/>
<path fill-rule="evenodd" clip-rule="evenodd" d="M14.2503 26.3596L14.4666 27.1831L13.6445 27.4431C14.1637 27.7031 14.7695 27.9631 15.505 28.1365L15.9376 27.0097C15.4617 26.8797 14.5964 26.533 14.2503 26.3596Z" fill="#FFFFFE"/>
<path fill-rule="evenodd" clip-rule="evenodd" d="M18.102 5.51366C18.8808 5.51366 19.6596 5.68701 20.2653 6.03372C20.3086 5.86037 20.3951 5.60034 20.4816 5.38364L20.2653 5.42698L20.049 5.47032L19.9624 5.25363L19.7028 4.60355L19.1404 4.86358L18.9241 4.95025L18.7943 4.86358L18.1885 4.25684L17.5828 4.86358L17.2799 5.08027L17.0636 4.99359L16.5877 4.64688L16.3281 5.29696L16.2416 5.51366L15.982 5.47032L15.7656 5.42698C15.8522 5.64367 15.9387 5.90371 15.982 6.07706C16.5444 5.73035 17.2799 5.51366 18.102 5.51366Z" fill="#FFFFFE"/>
<path fill-rule="evenodd" clip-rule="evenodd" d="M30.0828 12.8378C30.1693 12.8811 30.2559 12.8811 30.4289 12.8811C30.8616 12.8811 31.3375 12.6211 31.4673 12.2744C31.4673 12.2744 30.6885 12.2311 29.7799 11.321C29.5203 11.0609 29.2175 10.9309 28.9579 10.9309C28.5685 10.9309 28.2656 11.1043 28.2656 11.1043C29.2175 11.7543 29.4771 12.6645 30.0828 12.8378Z" fill="#FFFFFE"/>
<path fill-rule="evenodd" clip-rule="evenodd" d="M5.81543 12.9679C5.90197 12.9679 5.9885 12.9679 6.16156 12.9246C6.76729 12.7512 6.98362 11.7978 8.02201 11.2344C8.02201 11.2344 7.76241 11.061 7.32975 11.061C7.11342 11.061 6.76729 11.1477 6.50769 11.4511C5.5991 12.3612 4.82031 12.4045 4.82031 12.4045C4.90684 12.6212 5.33951 12.9679 5.81543 12.9679Z" fill="#FFFFFE"/>
<path fill-rule="evenodd" clip-rule="evenodd" d="M29.7341 19.382C28.9553 18.9486 28.4361 17.8652 28.263 17.5185C28.1332 19.6421 27.0948 21.1156 25.8834 22.5458C25.2777 23.2825 25.0613 24.0193 25.0613 24.0193C25.0613 24.0193 25.1911 23.2392 25.7103 22.5458C26.8352 21.2023 27.9169 19.5121 28.0034 17.5185C28.0467 16.175 27.7438 15.0482 27.1814 14.1381C27.5275 15.0915 27.441 16.2616 26.4026 17.3451C26.4026 17.3451 28.4794 14.8748 25.5805 12.3178C24.4123 11.321 23.1576 10.7576 22.5086 10.2809C24.845 11.0177 26.0132 10.1942 26.0132 10.1942C25.2777 10.8443 24.2825 10.8443 23.6768 10.7576C23.8499 10.8443 24.0229 10.8877 24.196 11.0177C26.143 12.1011 28.0034 13.878 28.263 16.3483C28.6957 18.7753 29.7341 19.382 29.7341 19.382ZM30.3398 16.565H30.3831C31.508 16.565 31.8974 15.3949 31.8974 15.3949C31.7243 15.3949 30.0802 15.3515 28.912 13.8347C28.1765 12.8379 27.5275 12.0145 26.2728 11.6677H26.143L26.0997 11.5377C26.0564 11.3644 26.1862 11.1477 26.4891 10.9743C28.2198 9.84752 27.0516 8.37401 27.0516 8.37401C27.0516 8.37401 26.5756 9.50082 25.4507 9.50082C25.4075 9.50082 25.4075 9.50082 25.3642 9.50082C25.2344 9.50082 25.1479 9.50081 24.9748 9.45748L24.8017 9.41414C24.8017 9.41414 25.1479 8.5907 24.3691 7.76727C23.7633 7.20386 23.1143 7.11719 22.6817 7.11719C22.5086 7.11719 22.3356 7.16053 22.3356 7.16053C22.725 7.68059 22.9846 8.46069 22.5519 8.98075C22.1625 9.41414 21.2539 9.45748 21.2539 10.1076C21.2539 10.3676 21.4702 10.7143 21.9462 11.0177C23.3307 11.9278 24.7152 13.0546 25.2777 14.6148C25.9699 16.5217 25.1911 17.8652 24.0662 18.6019C24.0662 18.6019 24.4556 18.9486 24.9748 18.992C25.0613 18.992 25.1479 18.992 25.3209 18.992C26.4458 18.992 27.0083 18.4719 27.0083 18.4719C27.0083 18.4719 26.9218 19.1653 26.3593 19.8154C25.8401 20.4222 25.1479 20.8122 24.0662 20.8122C24.0662 20.8122 24.0229 21.3323 24.4989 21.7657C24.7585 22.0257 25.494 22.1557 25.494 22.1557C25.494 22.1557 24.196 22.4157 24.0229 24.366C23.9364 25.4061 23.6768 25.7528 23.6768 25.7528C26.6622 25.7528 26.6189 23.1525 26.6189 23.1525C26.6189 23.1525 26.792 23.8893 27.6573 24.1493C27.7438 24.1926 27.8304 24.1926 28.0034 24.1926C28.263 24.1926 28.5226 24.1493 28.5226 24.1493C28.5226 24.1493 28.09 23.1958 28.5226 21.8957C28.912 20.8122 28.7822 20.0321 28.7822 20.0321C28.7822 20.0321 29.2149 20.6389 30.1667 20.6389C30.9888 20.6389 31.3782 19.9888 31.3782 19.9888C29.3447 19.1653 29.561 16.4783 29.561 16.4783C29.561 16.4783 29.8206 16.565 30.3398 16.565Z" fill="#FFFFFE"/>
<path fill-rule="evenodd" clip-rule="evenodd" d="M10.2676 22.5456C9.05615 21.1588 8.01776 19.6419 7.88796 17.5184C7.75817 17.9084 7.23897 18.9919 6.41692 19.3819C6.41692 19.3819 7.4553 18.7752 7.93123 16.3482C8.27736 13.8779 10.0513 12.0577 11.9982 11.0176C12.1713 10.9309 12.3876 10.8442 12.5174 10.7575C11.9117 10.8442 10.9166 10.8442 10.1811 10.1941C10.1811 10.1941 11.3493 11.0176 13.6856 10.2808C13.0366 10.7142 11.7819 11.3209 10.6137 12.3177C7.67163 14.8314 9.74841 17.3017 9.74841 17.3017C8.71002 16.2182 8.66676 15.048 8.96962 14.0946C8.40716 15.0047 8.06103 16.1315 8.14756 17.475C8.19083 19.4686 9.27248 21.1588 10.3974 22.5023C10.9599 23.1524 11.0464 23.9758 11.0464 23.9758C11.0464 23.9758 10.9166 23.2824 10.2676 22.5456ZM10.7868 22.1123C10.7868 22.1123 11.4791 22.0256 11.7819 21.7222C12.2578 21.2888 12.2146 20.7688 12.2146 20.7688C11.1329 20.7688 10.4839 20.3787 9.92147 19.772C9.35901 19.1219 9.27248 18.4285 9.27248 18.4285C9.27248 18.4285 9.83494 18.9485 10.9599 18.9485C11.0464 18.9485 11.1329 18.9485 11.306 18.9485C11.8252 18.9052 12.2146 18.5585 12.2146 18.5585C11.0464 17.8217 10.2676 16.5216 10.9599 14.5713C11.5223 13.0111 12.9068 11.841 14.2914 10.9742C14.7673 10.7142 14.9836 10.3675 14.9836 10.0641C14.9836 9.41402 14.0318 9.41402 13.6856 8.93729C13.253 8.41723 13.5558 7.63713 13.902 7.11707C13.902 7.11707 13.7722 7.07373 13.5558 7.07373C13.1664 7.07373 12.4742 7.16041 11.9117 7.76715C11.1762 8.54725 11.4791 9.41402 11.4791 9.41402L11.306 9.45736C11.0897 9.5007 11.0031 9.5007 10.8733 9.5007C10.8301 9.5007 10.8301 9.5007 10.7868 9.5007C9.70514 9.5007 9.18595 8.37389 9.18595 8.37389C9.18595 8.37389 8.01776 9.84741 9.74841 10.9742C10.008 11.1476 10.1811 11.3643 10.1378 11.5376L10.0513 11.6676H9.92147C8.71002 12.0143 8.06103 12.8378 7.28224 13.8346C6.11405 15.3514 4.46994 15.3948 4.29688 15.3948C4.29688 15.3948 4.68627 16.5649 5.81119 16.5649H5.85446C6.37365 16.5649 6.58998 16.3482 6.58998 16.3482C6.58998 16.3482 6.76305 19.0785 4.7728 19.8586C4.7728 19.8586 5.1622 20.5087 5.98425 20.5087C7.02264 20.5087 7.36877 19.902 7.36877 19.902C7.36877 19.902 7.32551 20.6821 7.62837 21.7655C8.06103 23.0657 7.62837 24.0192 7.62837 24.0192C7.62837 24.0192 7.8447 24.0625 8.14756 24.0625C8.23409 24.0625 8.36389 24.0625 8.49369 24.0192C9.31575 23.8458 9.53208 23.0224 9.53208 23.0224C9.53208 23.0224 9.44555 25.6227 12.4742 25.6227C12.4742 25.6227 12.2146 25.2326 12.128 24.2358C12.0415 22.3289 10.7868 22.1123 10.7868 22.1123Z" fill="#FFFFFE"/>
<path fill-rule="evenodd" clip-rule="evenodd" d="M17.4067 12.5345H18.7912V13.0113C18.6181 12.8379 18.272 12.8813 18.272 12.8813V13.5747C18.272 13.5747 18.272 13.9214 18.4018 14.0947H17.7095C17.8393 13.9647 17.8393 13.5747 17.8393 13.5747V12.8813C17.8393 12.8813 17.4932 12.8379 17.3202 13.0113V12.5345H17.4067ZM15.8924 12.5779C15.9356 12.6212 15.9789 12.6646 16.0222 12.7512C16.0222 12.7512 16.0222 12.7946 16.0654 12.7946C16.1087 12.8379 16.152 12.9246 16.1952 12.9679C16.1952 12.9679 16.1952 13.0113 16.2385 13.0113C16.2818 13.0979 16.325 13.1413 16.3683 13.228C16.801 13.9647 17.4932 14.4414 18.0989 14.4414C18.7047 14.4414 19.3969 13.9647 19.8296 13.228C19.8729 13.1413 19.9161 13.0546 19.9594 13.0113C19.9594 13.0113 19.9594 13.0113 19.9594 12.9679C20.0027 12.9246 20.0459 12.8379 20.0892 12.7946C20.0892 12.7946 20.0892 12.7512 20.1325 12.7512C20.1757 12.7079 20.219 12.6212 20.2623 12.5779C20.2623 12.5779 20.2622 12.5779 20.3055 12.5345C20.5218 12.3178 20.7814 12.1012 21.1276 12.0145L20.9978 11.9278L20.392 11.5378L19.8729 11.1477L18.1855 12.1012L16.4981 11.1477L15.8924 11.5378L15.2001 11.9711L15.0703 12.0578C15.3732 12.1445 15.5895 12.3179 15.8924 12.5779C15.8491 12.5779 15.8491 12.5779 15.8924 12.5779Z" fill="#FFFFFE"/>
<path fill-rule="evenodd" clip-rule="evenodd" d="M17.5765 9.41406V9.89078L17.49 9.84744C17.49 9.84744 17.3602 9.8041 17.1006 9.63075C16.7112 9.37072 16.7112 9.06735 16.7112 9.06735L17.5765 9.41406ZM17.9226 11.581V8.72064L16.1055 8.07056L16.5814 10.8442L17.9226 11.581Z" fill="#FFFFFE"/>
<path fill-rule="evenodd" clip-rule="evenodd" d="M18.6631 9.41406L19.4852 9.06735C19.4852 9.06735 19.4852 9.32738 19.0958 9.63075C18.8795 9.8041 18.7064 9.8041 18.7064 9.84744L18.6631 9.93412V9.41406ZM19.5717 10.8442L20.0476 8.07056L18.2305 8.6773V11.5377L19.5717 10.8442Z" fill="#FFFFFE"/>
<path fill-rule="evenodd" clip-rule="evenodd" d="M15.377 18.2119C15.5501 18.2552 15.7664 18.2985 15.8962 18.2985V18.2552C15.8962 18.2119 15.8962 18.2119 15.9395 18.1685C15.9827 18.0385 15.9827 17.8218 15.9827 17.6918C15.8962 17.6485 15.8097 17.5618 15.7664 17.4751C15.7231 17.3451 15.6366 17.3018 15.5068 17.3018C15.3338 17.3018 15.1174 17.3884 15.0309 17.4318C14.9011 17.7785 15.1607 18.1685 15.377 18.2119Z" fill="#FFFFFE"/>
<path fill-rule="evenodd" clip-rule="evenodd" d="M19.3973 16.6951C19.0512 17.0851 18.4022 17.7352 18.3589 17.7352L18.3157 17.7785L16.1956 17.7352C16.1956 17.9086 16.1523 18.1252 16.1523 18.2553V18.2986L18.6185 18.7753C18.8781 18.602 19.6136 18.0819 19.8732 17.8652C19.7002 17.6052 19.6569 17.2151 19.7002 16.9551C19.5704 16.8684 19.4838 16.7817 19.3973 16.6951Z" fill="#FFFFFE"/>
<path fill-rule="evenodd" clip-rule="evenodd" d="M19.6593 14.1815C19.1834 14.6582 18.7074 14.8316 18.318 14.8749C18.2315 14.8749 18.1882 14.8749 18.1017 14.8749C18.0152 14.8749 17.9719 14.8749 17.8854 14.8749C17.7988 14.8749 17.7556 14.8749 17.669 14.8316C17.6258 14.9183 17.6258 15.1783 17.7123 15.395C17.7988 15.5684 17.9719 15.7417 18.2315 15.8284L18.318 15.8717V15.9584C18.318 16.0017 18.318 16.6085 19.0103 16.7385C19.0968 16.6518 19.1834 16.5218 19.2699 16.4785C19.1401 16.1318 19.2266 15.8284 19.3997 15.6984C19.3997 15.7417 19.3132 16.5218 19.9622 16.8252L20.0487 16.8685L20.0054 16.9552C20.0054 16.9985 19.7891 17.7353 20.5679 18.0387L20.6977 18.082L20.6544 18.212C20.6544 18.2554 20.3083 18.9488 21.0438 19.3388H22.6014V18.1253C22.0389 18.082 21.8226 17.6053 21.7793 17.3019C21.563 17.2586 21.3034 17.1719 21.1736 16.9552C20.8275 16.5218 21.1303 16.1318 21.1303 16.1318C21.1303 16.1318 21.1303 16.5651 21.3467 16.8252C21.4765 16.9552 21.6063 17.0419 21.8659 17.0419H21.9524V17.1286C21.9524 17.1719 21.9957 17.7353 22.5581 17.7786V15.265C22.5581 14.8749 22.6447 14.4849 22.7744 14.1382H19.7026V14.1815H19.6593Z" fill="#FFFFFE"/>
<path fill-rule="evenodd" clip-rule="evenodd" d="M15.5042 15.3515L15.4609 16.955L15.634 16.9983L16.0667 15.4382L15.8503 14.9614L15.5042 15.3515Z" fill="#FFFFFE"/>
<path fill-rule="evenodd" clip-rule="evenodd" d="M16.5025 21.2457C16.4593 21.2457 16.416 21.2023 16.416 21.159C16.416 21.1157 16.4593 21.0723 16.5025 21.0723C16.5458 21.0723 16.5891 21.1157 16.5891 21.159C16.5891 21.2457 16.5458 21.2457 16.5025 21.2457ZM20.4397 22.7192C20.7859 22.8059 20.8291 23.8027 21.3483 23.8893C21.3916 23.8893 21.4349 23.8893 21.4781 23.8893C21.6079 23.8893 21.6945 23.846 21.8243 23.716C21.8243 23.716 21.6079 23.3259 21.3916 23.0659C21.1753 22.7192 20.9589 22.3291 20.483 22.3291H20.4397C20.3099 22.3291 20.2234 22.4158 20.2234 22.4158C20.0503 22.3291 19.834 22.2858 19.7042 22.2858C19.4446 22.2858 19.185 22.4158 19.0985 22.4158L18.0168 22.3291C17.887 22.3291 17.7572 22.1558 17.6707 22.1125V22.0691C17.6707 22.0258 17.6707 22.0258 17.6707 21.9824C17.6274 21.159 17.0217 20.8123 16.7621 20.8123C16.7621 20.8123 16.8054 20.6823 16.7189 20.5956L16.5025 20.769L15.767 20.3789L16.2862 20.9856L15.8535 21.5057C15.8103 21.5491 15.8103 21.6357 15.8103 21.6791L15.9833 21.8524L16.1997 21.7224H16.2429C16.2862 21.7224 16.416 21.7224 16.4593 21.7224C16.5458 21.7224 16.6323 21.7224 16.6323 21.6357C16.5891 21.9824 16.2862 22.4592 16.5025 22.8926L16.6323 23.2393L15.7237 23.1092L15.2911 23.8027C15.1613 24.0194 15.1613 24.2794 15.2478 24.4094L15.3776 24.5828C15.3776 24.5828 15.5939 24.3661 15.6372 24.1927L15.6805 24.0627C15.6372 24.0194 15.6372 23.9327 15.6805 23.8893L15.9401 23.456L16.9785 23.6726L17.0217 23.586C17.1083 23.456 17.1948 23.456 17.2813 23.456C17.3246 23.456 17.3678 23.456 17.4111 23.456C17.5842 23.4993 17.9303 23.5426 18.2332 23.5426C18.6226 23.5426 18.9254 23.4993 19.1418 23.2826C19.5312 23.846 20.3099 23.9327 20.2234 24.236L20.0504 25.2328C20.1801 25.2328 20.3099 25.2328 20.4397 25.1895L20.6128 24.1494C20.6128 24.0627 20.6561 23.8893 20.6561 23.8893C20.5695 23.8027 20.4397 23.6726 20.2667 23.456C20.1369 23.1959 20.2234 23.0226 20.0936 22.7192C20.2667 22.7625 20.3532 22.7192 20.4397 22.7192Z" fill="#FFFFFE"/>
<path fill-rule="evenodd" clip-rule="evenodd" d="M15.0307 23.5858C15.0307 23.5858 15.3768 23.4558 15.4201 23.3691L15.3768 23.2824C15.3335 23.1957 15.3335 23.1524 15.4201 23.1091L15.8095 22.849L16.4152 22.9357C16.4152 22.9357 16.3286 22.8057 16.3286 22.589L15.7229 22.459L15.1172 22.8057C14.9009 22.979 14.8576 23.2824 14.9441 23.4558L15.0307 23.5858Z" fill="#FFFFFE"/>
<path fill-rule="evenodd" clip-rule="evenodd" d="M19.4844 25.2325C19.5709 25.2325 19.7007 25.2325 19.8738 25.2325C19.8738 25.2325 20.2199 24.2791 20.2199 24.2358C20.0468 24.1491 19.6574 23.9757 19.5276 23.8457C19.6142 23.9757 19.8738 24.1924 19.7872 24.2791L19.4844 25.2325Z" fill="#FFFFFE"/>
<path fill-rule="evenodd" clip-rule="evenodd" d="M22.6006 19.5986H13.6445V22.979C13.6445 24.3225 14.6397 25.2327 16.1107 25.2327C17.3222 25.2327 17.6683 25.276 18.1442 25.7527C18.4903 25.406 18.7067 25.3193 19.2691 25.276V25.2327L19.5287 24.3226L19.0528 23.8025C18.8797 23.8458 18.7067 23.8892 18.4471 23.8892C18.1875 23.8892 17.8846 23.8458 17.5385 23.8025C17.4952 23.8025 17.4952 23.8025 17.452 23.8025C17.4087 23.8025 17.4087 23.8025 17.4087 23.8025L17.3654 23.8892L17.2789 24.0625L17.0626 24.0192L16.2405 23.8458L16.1107 24.0192L16.1972 24.1059L16.154 24.2792C16.1107 24.4526 15.8944 24.7126 15.8078 24.7559L15.5482 25.016L15.3752 24.7993L15.2454 24.6259C15.1156 24.4526 15.0723 24.1925 15.1588 23.9325L14.9425 24.0192L14.856 23.8025L14.7695 23.6291C14.6397 23.3691 14.6829 22.8924 15.029 22.6323L15.7213 22.2423L16.3703 22.3723C16.3703 22.329 16.4136 22.1123 16.4136 22.0256H16.3703L15.9809 22.1556L15.5915 21.9389C15.5915 21.9389 15.4617 21.8089 15.5915 21.6789L15.9809 21.1588L15.029 19.902L16.3703 20.4654L16.4568 20.3787L16.6299 20.162L16.8462 20.3354C16.8895 20.3787 16.9328 20.4654 16.9328 20.5087C17.3222 20.6388 18.0144 21.1155 18.0577 21.8089L17.8413 21.8956C17.8846 21.9389 17.9279 21.9823 17.9279 21.9823L18.923 22.0689C18.9663 22.0689 18.9663 22.0689 19.0095 22.0256C19.1393 21.9823 19.3557 21.9389 19.5287 21.9389C19.7018 21.9389 19.8749 21.9823 20.0479 22.0689C20.0912 22.0689 20.1777 22.0256 20.2643 22.0256H20.3075C20.8267 22.0256 21.0863 22.4156 21.3026 22.719C21.3459 22.7624 21.3459 22.8057 21.3892 22.849C21.5622 23.1091 21.8218 23.4991 21.8218 23.4991L21.9084 23.6725L21.7786 23.8025C21.692 23.9325 21.5622 24.0625 21.2594 24.0625C21.2161 24.0625 21.1728 24.0625 21.0863 24.0625C21.043 24.0625 20.9998 24.0192 20.9565 24.0192C20.9565 24.0625 20.9565 24.1059 20.9132 24.1925L20.7402 25.1893C21.7786 24.9726 22.4276 24.1492 22.4276 23.0224L22.6006 19.5986Z" fill="#FFE52B"/>
<path fill-rule="evenodd" clip-rule="evenodd" d="M13.6436 19.3387H20.6094C20.2633 18.9487 20.2633 18.5586 20.3931 18.2119C20.3066 18.1686 20.2201 18.1252 20.1335 18.0385C19.8739 18.2119 19.0086 18.8186 18.8355 18.992L18.7923 19.0353L16.0665 18.5153H15.98C15.9367 18.5153 15.8502 18.5153 15.7204 18.5153C15.6771 18.6453 15.5906 18.6886 15.504 18.6886H15.4608C15.3742 18.6886 15.331 18.6453 15.2877 18.6019C15.2444 18.5586 15.2444 18.4719 15.2444 18.4286V18.3852C14.9848 18.2119 14.682 17.7352 14.8118 17.2584V17.2151L14.8551 17.1718C14.8551 17.1718 14.8983 17.1284 14.9848 17.0851H14.682C14.5955 17.0851 14.5522 16.9984 14.5955 16.9551C14.5955 16.8684 14.682 16.8251 14.7253 16.8684L15.2012 16.9551L15.2444 15.2649L15.9367 14.5281L16.3694 15.4816L15.8934 17.0851L16.3261 17.1284C16.4126 17.1284 16.4559 17.2151 16.4126 17.2584C16.4126 17.3018 16.3694 17.3451 16.2828 17.3451L15.9367 17.3018C15.9367 17.3018 15.9367 17.3018 15.9367 17.3451C15.98 17.4318 16.0232 17.4751 16.0665 17.4751L18.1433 17.5185C18.2298 17.4318 18.4894 17.2584 18.6625 16.9984C18.1433 16.8251 17.9702 16.3483 17.9269 16.045C17.6673 15.9149 17.451 15.6983 17.3212 15.4816C17.1914 15.2215 17.2347 14.8748 17.278 14.7448C17.0184 14.6581 16.7155 14.4848 16.3694 14.1814H13.2109C13.3407 14.5714 13.4273 14.9182 13.4273 15.3082V19.3387H13.6436Z" fill="#FFE52B"/>
<path fill-rule="evenodd" clip-rule="evenodd" d="M16.5006 21.0723C16.4573 21.0723 16.4141 21.1156 16.4141 21.1589C16.4141 21.2023 16.4573 21.2456 16.5006 21.2456C16.5439 21.2456 16.5871 21.2023 16.5871 21.1589C16.5871 21.1156 16.5439 21.0723 16.5006 21.0723Z" fill="#1A1919"/>
<path fill-rule="evenodd" clip-rule="evenodd" d="M20.6112 28.1364L20.1786 27.0096C20.6545 26.8796 21.4766 26.5329 21.8659 26.3162L21.6496 27.1396L22.4717 27.3997C22.039 27.7464 21.3468 27.9631 20.6112 28.1364ZM18.1018 29.1766C17.1067 29.1766 15.9818 28.9599 15.6789 28.8298L16.1981 27.4863C16.6307 27.6164 17.4528 27.703 18.1018 27.703H18.1451C18.7508 27.703 19.6594 27.573 20.0488 27.4863L20.568 28.8298C20.1786 28.9599 19.0537 29.1766 18.1018 29.1766ZM13.6886 27.443L14.5107 27.183L14.2511 26.3595C14.6405 26.5762 15.4626 26.8796 15.9385 27.053L15.5058 28.1798C14.8136 27.9631 14.2078 27.7464 13.6886 27.443ZM22.5149 27.2263L22.039 27.0096L22.1688 26.4896L22.2986 25.9262C22.2986 25.9262 21.3468 26.4462 20.092 26.8363C19.7026 26.9229 19.443 26.9663 19.443 26.9663V27.3563C19.443 27.3563 18.7508 27.4863 18.0585 27.4863H18.0153C17.323 27.4863 16.6307 27.3563 16.6307 27.3563V26.9229C16.6307 26.9229 16.3712 26.8796 15.9818 26.7929C14.727 26.4029 13.7752 25.8828 13.7752 25.8828L13.905 26.4462L14.0348 26.9663L13.5156 27.1396L12.9531 27.3997C13.6021 27.7464 14.5107 28.1798 15.3328 28.4398L15.1164 28.9599C15.1164 28.9599 16.1981 29.4366 17.9287 29.4366H17.972C19.7459 29.4366 20.7843 28.9599 20.7843 28.9599L20.6112 28.4398C21.4333 28.2231 22.3419 27.7464 22.9909 27.3997L22.5149 27.2263Z" fill="#1A1919"/>
<path fill-rule="evenodd" clip-rule="evenodd" d="M15.9353 5.42702L16.1517 5.47036L16.2382 5.25366L16.5843 4.64692L17.1468 4.90695L17.3631 4.99363L18.1419 4.25687L18.7044 4.86361L18.8774 5.03697L19.0938 4.95029L19.6562 4.69026L19.9158 5.34034L20.0456 5.60037L20.262 5.55703L20.4783 5.5137C20.3918 5.73039 20.3052 5.99042 20.262 6.16378C19.6562 5.81707 18.9207 5.64371 18.0986 5.64371C17.3199 5.64371 16.5411 5.81707 15.9353 6.16378C15.8921 5.99042 15.8055 5.73039 15.719 5.5137L15.9353 5.42702ZM18.0986 5.8604C19.137 5.8604 19.9591 6.20711 20.435 6.55382C20.435 6.55382 20.5648 5.73039 21.0407 4.99363L20.2187 5.08031L19.786 4.12686L18.964 4.60358L18.1419 3.82349L17.3199 4.60358L16.4978 4.1702L15.9786 5.16699L15.1133 5.08031C15.5892 5.81707 15.719 6.6405 15.719 6.6405C16.1949 6.25045 17.0603 5.8604 18.0986 5.8604Z" fill="#1A1919"/>
<path fill-rule="evenodd" clip-rule="evenodd" d="M31.3842 19.902C31.3842 19.902 30.9948 20.5521 30.1727 20.5521C29.1776 20.5521 28.7882 19.9453 28.7882 19.9453C28.7882 19.9453 28.8315 20.7254 28.5286 21.8089C28.0959 23.1091 28.5286 24.0625 28.5286 24.0625C28.5286 24.0625 28.3123 24.1059 28.0094 24.1059C27.9229 24.1059 27.7931 24.1059 27.6633 24.0625C26.8412 23.8892 26.6249 23.0657 26.6249 23.0657C26.6249 23.0657 26.7114 25.666 23.6828 25.666H23.6395C23.6395 25.666 23.8991 25.276 23.9857 24.2792C24.1155 22.3723 25.4567 22.0689 25.4567 22.0689C25.4567 22.0689 24.7645 21.9823 24.4616 21.6789C23.9857 21.2455 24.0289 20.7254 24.0289 20.7254C25.1106 20.7254 25.7596 20.3354 26.322 19.7287C26.8845 19.0786 26.971 18.3852 26.971 18.3852C26.971 18.3852 26.4086 18.9486 25.2836 18.9486C25.1971 18.9486 25.1106 18.9486 24.9375 18.9486C24.4183 18.9052 24.0289 18.5585 24.0289 18.5585C25.1971 17.8217 25.9759 16.5216 25.2404 14.5713C24.6779 13.0112 23.2934 11.841 21.9089 10.9742C21.433 10.7142 21.2166 10.3675 21.2166 10.0641C21.2166 9.41404 22.1685 9.41404 22.5146 8.93732C22.9473 8.41725 22.6444 7.63716 22.2983 7.11709C22.2983 7.11709 22.4281 7.07375 22.6444 7.07375C23.0338 7.07375 23.7261 7.16043 24.2885 7.76717C25.024 8.54727 24.7212 9.41404 24.7212 9.41404L24.8942 9.45738C25.024 9.50072 25.1106 9.50072 25.2836 9.50072C25.3269 9.50072 25.3269 9.50072 25.3702 9.50072C26.4518 9.50072 26.971 8.37391 26.971 8.37391C26.971 8.37391 28.1392 9.84743 26.4086 10.9742C26.149 11.1476 25.9759 11.3643 26.0192 11.5376L26.0624 11.6677H26.1922C27.4037 12.0144 28.0527 12.8378 28.8315 13.8346C29.9997 15.3514 31.6438 15.3948 31.8168 15.3948C31.8168 15.3948 31.4274 16.5649 30.3025 16.5649H30.2593C29.7401 16.5649 29.5237 16.3482 29.5237 16.3482C29.5237 16.3482 29.3939 19.0352 31.3842 19.902ZM30.389 16.955C31.7303 16.955 32.2062 15.5681 32.2062 15.4815L32.336 15.0047H31.8168C31.6438 15.0047 30.1295 14.9614 29.0911 13.6179L29.0045 13.4879C28.3123 12.5778 27.6633 11.7543 26.4951 11.3643C26.5384 11.3209 26.5816 11.3209 26.6249 11.2776C27.2306 10.8442 27.62 10.3675 27.7065 9.76075C27.8363 8.85064 27.2739 8.20056 27.2306 8.15722L26.8412 7.68049L26.6249 8.2439C26.6249 8.28724 26.1922 9.19735 25.3702 9.19735H25.3269C25.2836 9.19735 25.2404 9.19735 25.1538 9.19735C25.1971 8.8073 25.1106 8.15722 24.5481 7.59382C23.8991 6.9004 23.0338 6.81372 22.6444 6.81372C22.4281 6.81372 22.255 6.85706 22.255 6.85706L21.7358 6.94374L22.1252 7.42046C22.3848 7.81051 22.6444 8.46059 22.3415 8.76396C22.255 8.85064 22.082 8.93732 21.8656 9.02399C21.4762 9.19735 20.957 9.45738 20.957 10.0641C20.957 10.4975 21.3032 10.8876 21.8656 11.2343C23.553 12.3177 24.5914 13.4012 25.0673 14.658C25.7596 16.5216 24.851 17.6051 23.9857 18.1685L23.4665 18.4285L23.8126 18.7752C23.8559 18.8185 24.2885 19.2086 24.8942 19.2519C25.024 19.2519 25.1106 19.2519 25.2404 19.2519C25.673 19.2519 25.9759 19.2086 26.2788 19.1219C26.1922 19.2519 26.1057 19.3819 26.0192 19.5553C25.5 20.162 24.8943 20.3787 23.9857 20.4654H23.6395V20.8121C23.6395 20.8555 23.5963 21.5055 24.202 22.0256C24.2885 22.1123 24.3751 22.1556 24.5481 22.199C24.1155 22.589 23.7693 23.1957 23.6395 24.2792C23.5963 25.1893 23.3799 25.4927 23.3799 25.4927L22.9905 26.0561H23.6395C24.7212 26.0561 25.5432 25.7961 26.149 25.146C26.4951 24.7559 26.7114 24.4092 26.798 24.0192C26.971 24.1492 27.2306 24.3659 27.5335 24.4092C27.6633 24.4526 27.7498 24.4526 27.9661 24.4526C28.3123 24.4526 28.5286 24.4092 28.5719 24.3659L29.0045 24.2792L28.8315 23.8892C28.8315 23.8458 28.4421 23.0657 28.8315 21.9389C28.9613 21.4622 29.0478 20.9855 29.0911 20.6821C29.3507 20.8121 29.6968 20.8988 30.1727 20.8988C31.2111 20.8988 31.687 20.1187 31.7303 20.1187L31.9034 19.7287L31.514 19.5986C30.2593 19.0352 29.9997 17.6484 29.9564 16.8683C30.0429 16.8683 30.1727 16.9116 30.3458 16.9116L30.389 16.955Z" fill="#1A1919"/>
<path fill-rule="evenodd" clip-rule="evenodd" d="M28.8725 10.9742C29.0888 10.9742 29.435 11.0608 29.6946 11.3642C30.6031 12.2743 31.3819 12.3176 31.3819 12.3176C31.2521 12.6644 30.8195 12.9244 30.3435 12.9244C30.257 12.9244 30.1705 12.9244 29.9974 12.8811C29.3917 12.7077 29.2186 11.7542 28.137 11.1908C28.1802 11.1908 28.4831 10.9742 28.8725 10.9742ZM28.0072 11.5376C28.5264 11.7976 28.786 12.1876 29.0888 12.491C29.3052 12.8377 29.608 13.0977 29.9974 13.2278C30.1272 13.2711 30.257 13.2711 30.4301 13.2711C30.9925 13.2711 31.555 12.9244 31.7713 12.4477L31.9877 11.9709L31.4685 11.9276C31.4252 11.9276 30.7762 11.8843 29.9974 11.1042C29.6513 10.7575 29.3052 10.6274 28.9158 10.6274C28.3966 10.6274 28.0937 10.8441 28.0072 10.8875L27.5312 11.2342L28.0072 11.5376Z" fill="#1A1919"/>
<path fill-rule="evenodd" clip-rule="evenodd" d="M28.2661 16.3051C27.92 13.8781 26.1461 12.1012 24.1991 11.0178C24.026 10.9311 23.8097 10.8444 23.6799 10.7577C24.2856 10.8444 25.2808 10.8444 26.0163 10.1943C26.0163 10.1943 24.8481 11.0178 22.5117 10.281C23.1607 10.7144 24.4154 11.3211 25.5836 12.3179C28.4824 14.8316 26.4057 17.3452 26.4057 17.3452C27.4441 16.2618 27.4873 15.0916 27.1845 14.1382C27.7469 15.0483 28.0931 16.1751 28.0065 17.5186C27.92 19.4688 26.8383 21.159 25.7134 22.5459C25.151 23.1959 25.0644 24.0194 25.0644 24.0194C25.0644 24.0194 25.2808 23.326 25.8865 22.5459C27.0979 21.159 28.1363 19.6422 28.2661 17.5186C28.3959 17.9086 28.9151 18.9921 29.7372 19.3821C29.7372 19.3821 28.6988 18.7754 28.2661 16.3051Z" fill="#1A1919"/>
<path fill-rule="evenodd" clip-rule="evenodd" d="M12.521 25.6662C9.53565 25.6662 9.57891 23.0658 9.57891 23.0658C9.57891 23.0658 9.40585 23.8026 8.54053 24.0626C8.45399 24.106 8.36746 24.106 8.1944 24.106C7.9348 24.106 7.6752 24.0626 7.6752 24.0626C7.6752 24.0626 8.10786 23.1092 7.6752 21.809C7.28581 20.7256 7.41561 19.9455 7.41561 19.9455C7.41561 19.9455 6.98294 20.5522 6.03109 20.5522C5.16577 20.5522 4.77637 19.9021 4.77637 19.9021C6.80988 19.0787 6.59355 16.3917 6.59355 16.3917C6.59355 16.3917 6.33395 16.565 5.81476 16.565H5.77149C4.64657 16.565 4.25718 15.3949 4.25718 15.3949C4.43024 15.3949 6.07436 15.3516 7.24254 13.8347C7.97807 12.8379 8.62706 12.0145 9.88178 11.6678H10.0116L10.0548 11.5378C10.0981 11.3644 9.96831 11.1477 9.66544 10.9744C7.9348 9.84755 9.10299 8.37403 9.10299 8.37403C9.10299 8.37403 9.57891 9.50084 10.7038 9.50084C10.7471 9.50084 10.7471 9.50084 10.7904 9.50084C10.9202 9.50084 11.0067 9.50084 11.1798 9.4575L11.3528 9.41416C11.3528 9.41416 11.0067 8.59073 11.7855 7.76729C12.3479 7.16055 13.0402 7.07387 13.4296 7.07387C13.6027 7.07387 13.7757 7.11721 13.7757 7.11721C13.3863 7.63727 13.1267 8.41737 13.5594 8.93743C13.9488 9.37082 14.8574 9.41416 14.8574 10.0642C14.8574 10.3243 14.6411 10.671 14.1651 10.9744C12.7806 11.8845 11.3961 13.0113 10.8336 14.5715C10.1414 16.4784 10.9202 17.8219 12.0883 18.5586C12.0883 18.5586 11.699 18.9053 11.1798 18.9487C11.0932 18.9487 11.0067 18.9487 10.8336 18.9487C9.70871 18.9487 9.14625 18.4286 9.14625 18.4286C9.14625 18.4286 9.23278 19.122 9.79524 19.7721C10.3144 20.3788 11.0067 20.7689 12.0883 20.7689C12.0883 20.7689 12.1316 21.289 11.6557 21.7223C11.3961 21.9824 10.6606 22.1124 10.6606 22.1124C10.6606 22.1124 11.9586 22.3724 12.1316 24.3227C12.2614 25.2761 12.5643 25.6662 12.521 25.6662ZM12.8239 25.4928C12.8239 25.4928 12.6075 25.1461 12.5643 24.2793C12.4777 23.1959 12.0883 22.5891 11.6557 22.1991C11.7422 22.1557 11.872 22.0691 12.0018 22.0257C12.5643 21.5057 12.5643 20.8989 12.5643 20.8122V20.4655H12.2181C11.3096 20.4655 10.7038 20.2055 10.1846 19.5554C10.0548 19.4254 9.96831 19.2954 9.92504 19.122C10.1846 19.2087 10.5308 19.252 10.9634 19.252C11.05 19.252 11.1798 19.252 11.3096 19.252C11.9153 19.2087 12.3479 18.8187 12.3912 18.7753L12.7373 18.4286L12.3479 18.2119C11.4394 17.6485 10.5308 16.565 11.223 14.7015C11.699 13.488 12.7373 12.3612 14.4247 11.2777C14.9872 10.8877 15.3333 10.4976 15.3333 10.1076C15.3333 9.50084 14.8141 9.19747 14.4247 9.06745C14.2517 8.98077 14.0353 8.8941 13.9488 8.80742C13.6892 8.46071 13.9055 7.81063 14.1651 7.46392L14.5545 6.98719L13.9488 6.90052C13.9488 6.90052 13.7757 6.85718 13.5594 6.85718C13.1267 6.85718 12.3047 6.94386 11.6557 7.63727C11.0067 8.15734 10.9634 8.76408 10.9634 9.19747C10.9202 9.19747 10.8769 9.19747 10.7904 9.19747H10.7471C9.92504 9.19747 9.53565 8.28735 9.49238 8.24402L9.31932 7.68061L8.92992 8.15734C8.92992 8.20068 8.36746 8.85076 8.49726 9.76087C8.58379 10.3243 8.97319 10.8443 9.57891 11.2777C9.62218 11.3211 9.66545 11.3644 9.70871 11.3644C8.54053 11.7544 7.89153 12.5779 7.19928 13.488L7.11274 13.618C6.03109 14.9615 4.51677 15.0049 4.34371 15.0049H3.78125L3.91105 15.4816C3.91105 15.5249 4.38698 16.9551 5.72823 16.9551H5.77149C5.90129 16.9551 6.03109 16.9118 6.16089 16.9118C6.11762 17.6485 5.81476 19.0787 4.56004 19.5988L4.17065 19.7288L4.34371 20.1188C4.34371 20.1622 4.81964 20.8989 5.90129 20.8989C6.37722 20.8989 6.68008 20.8122 6.98294 20.6822C7.02621 21.0289 7.11274 21.4623 7.24254 21.939C7.63194 23.0658 7.28581 23.8459 7.24254 23.8893L7.19928 24.236L7.63194 24.3227C7.6752 24.3227 7.89153 24.4093 8.23766 24.4093C8.36746 24.4093 8.49726 24.4093 8.62706 24.366C8.97319 24.2793 9.18952 24.1493 9.36258 23.976C9.44911 24.366 9.70871 24.7127 10.0116 25.1028C10.574 25.7095 11.3961 26.0129 12.521 26.0129H13.17L12.8239 25.4928Z" fill="#1A1919"/>
<path fill-rule="evenodd" clip-rule="evenodd" d="M6.46018 11.3643C6.71978 11.1043 7.02264 10.9743 7.28224 10.9743C7.67163 10.9743 7.9745 11.1476 7.9745 11.1476C6.89284 11.711 6.71978 12.6211 6.11405 12.8378C6.02752 12.8812 5.94099 12.8812 5.76792 12.8812C5.33526 12.8812 4.85933 12.6211 4.72954 12.2744C4.7728 12.2744 5.59486 12.2311 6.46018 11.3643ZM5.81119 13.2712C5.94099 13.2712 6.07079 13.2712 6.24385 13.2279C6.63325 13.0979 6.84958 12.7945 7.15244 12.4911C7.41204 12.1444 7.7149 11.7977 8.23409 11.5377L8.75329 11.2776L8.27736 10.9309C8.23409 10.8876 7.8447 10.6709 7.36877 10.6709C6.93611 10.6709 6.58998 10.8443 6.28712 11.1476C5.55159 11.8844 4.9026 11.9711 4.81607 11.9711L4.29688 12.0144L4.51321 12.4911C4.68627 12.9678 5.24873 13.2712 5.81119 13.2712Z" fill="#1A1919"/>
<path fill-rule="evenodd" clip-rule="evenodd" d="M8.14891 17.5186C8.10565 16.1751 8.40851 15.0483 8.97097 14.1382C8.62484 15.0916 8.71137 16.2618 9.74976 17.3452C9.74976 17.3452 7.67298 14.8749 10.5718 12.3179C11.74 11.3211 12.9947 10.7577 13.6437 10.281C11.3073 11.0178 10.1392 10.1943 10.1392 10.1943C10.8747 10.8444 11.8698 10.8444 12.4755 10.7577C12.3457 10.8444 12.1294 10.8878 11.9563 11.0178C10.0094 12.1012 8.14891 13.8781 7.88931 16.3484C7.41339 18.7754 6.375 19.3821 6.375 19.3821C7.15379 18.9488 7.67298 17.8653 7.84605 17.5186C7.97585 19.6422 9.01423 21.1157 10.2257 22.5459C10.8314 23.2826 11.0477 24.0194 11.0477 24.0194C11.0477 24.0194 10.9179 23.2393 10.3988 22.5459C9.3171 21.159 8.23544 19.4688 8.14891 17.5186Z" fill="#1A1919"/>
<path fill-rule="evenodd" clip-rule="evenodd" d="M17.4062 12.5347V13.0114C17.5793 12.838 17.9254 12.8814 17.9254 12.8814V13.5748C17.9254 13.5748 17.9254 13.9215 17.7956 14.0949H18.4446C18.3148 13.9648 18.3148 13.5748 18.3148 13.5748V12.8814C18.3148 12.8814 18.661 12.838 18.834 13.0114V12.5347H17.4062Z" fill="#1A1919"/>
<path fill-rule="evenodd" clip-rule="evenodd" d="M17.1033 9.63079C17.3197 9.80414 17.4927 9.80414 17.4927 9.84748L17.5793 9.89082V9.41409L16.7572 9.06738C16.7139 9.06738 16.7139 9.32741 17.1033 9.63079Z" fill="#1A1919"/>
<path fill-rule="evenodd" clip-rule="evenodd" d="M19.0498 9.63079C19.4392 9.32741 19.4392 9.06738 19.4392 9.06738L18.6172 9.41409V9.89082L18.7037 9.84748C18.747 9.80414 18.8335 9.80414 19.0498 9.63079Z" fill="#1A1919"/>
<path fill-rule="evenodd" clip-rule="evenodd" d="M18.1003 8.41741L16.1533 7.63731C16.3264 7.20392 17.1051 6.90055 18.1003 6.90055C19.0954 6.90055 19.9174 7.24726 20.1338 7.63731L18.1003 8.41741ZM19.5713 10.8444L18.2301 11.5378V8.67744L20.0472 8.0707L19.5713 10.8444ZM20.4366 11.6245L21.0424 12.0145L21.1722 12.1012C20.826 12.1879 20.5664 12.3612 20.3501 12.6213C20.3501 12.6213 20.3501 12.6213 20.3068 12.6646C20.2636 12.7079 20.2203 12.7513 20.177 12.838C20.177 12.838 20.177 12.838 20.1338 12.8813C20.0905 12.9246 20.0472 13.0113 20.004 13.0546C20.004 13.0546 20.004 13.0546 20.004 13.098C19.9607 13.1847 19.9174 13.228 19.8742 13.3147C19.4415 14.0514 18.7493 14.5282 18.1435 14.5282C17.5378 14.5282 16.8456 14.0514 16.4129 13.3147C16.3696 13.228 16.3264 13.1847 16.2831 13.098C16.2831 13.098 16.2831 13.0546 16.2398 13.0546C16.1966 13.0113 16.1533 12.9246 16.11 12.8813C16.11 12.8813 16.11 12.838 16.0668 12.838C16.0235 12.7946 15.9802 12.7513 15.937 12.6646C15.937 12.6646 15.937 12.6646 15.8937 12.6213C15.6774 12.4046 15.4178 12.1879 15.0716 12.1012L15.2014 12.0145L15.8072 11.6245L16.4129 11.2344L18.1003 12.1879L19.7876 11.2344L20.4366 11.6245ZM22.8163 14.1815C22.6865 14.5715 22.5999 14.9182 22.5999 15.3083V17.8219C22.0808 17.7352 21.9942 17.1718 21.9942 17.1718V17.0851H21.9077C21.6914 17.0851 21.5183 16.9551 21.3885 16.8685C21.1722 16.6084 21.1289 16.2184 21.1722 16.175C21.1722 16.175 20.9126 16.6084 21.2154 16.9985C21.3452 17.1718 21.5616 17.2585 21.8212 17.3452C21.8644 17.6919 22.0808 18.0819 22.6432 18.1686V19.3821H21.0856C20.3934 18.9487 20.653 18.2986 20.6962 18.2553L20.7395 18.1253L20.5664 18.0386C19.7876 17.7786 20.004 16.9551 20.004 16.9551L20.0472 16.8685L19.9607 16.8251C19.3117 16.5651 19.3983 15.7416 19.3983 15.6983C19.2252 15.8283 19.1387 16.175 19.2685 16.4784C19.1819 16.5651 19.0954 16.6518 19.0089 16.7384C18.3599 16.5651 18.3166 15.9583 18.3166 15.9583V15.8717L18.2301 15.8283C17.9705 15.7416 17.7974 15.6116 17.7109 15.3949C17.6243 15.1782 17.6676 14.9615 17.6676 14.8315C17.7541 14.8315 17.7974 14.8749 17.8839 14.8749C17.9705 14.8749 18.0137 14.8749 18.1003 14.8749C18.1868 14.8749 18.2301 14.8749 18.3166 14.8749C18.7493 14.8315 19.2252 14.6582 19.6579 14.1815H22.8163ZM20.9126 25.1461L21.0856 24.236C21.0856 24.1927 21.0856 24.1493 21.1289 24.0627C21.1722 24.0627 21.2154 24.106 21.2587 24.106C21.302 24.106 21.3885 24.106 21.4318 24.106C21.6914 24.106 21.8644 23.976 21.951 23.846L22.0808 23.716L22.0375 23.4993C22.0375 23.4993 21.8212 23.1092 21.6048 22.8492C21.5616 22.8058 21.5183 22.7625 21.5183 22.7192C21.3452 22.3725 21.0424 22.0258 20.5232 22.0258H20.4799C20.3934 22.0258 20.3501 22.0258 20.2636 22.0691C20.0905 21.9824 19.9174 21.9391 19.7444 21.9391C19.5281 21.9391 19.3117 21.9824 19.2252 22.0258C19.1819 22.0258 19.1819 22.0258 19.1387 22.0691L18.1435 21.9391C18.1435 21.9391 18.1003 21.8957 18.057 21.8524L18.2733 21.7657C18.2301 21.0723 17.5378 20.5956 17.1484 20.4656C17.1484 20.3789 17.1051 20.3355 17.0619 20.2922L16.8456 20.1189L16.586 20.3789L16.4994 20.4656L15.0284 19.9022L15.937 21.029L15.5476 21.549C15.4178 21.679 15.5476 21.8091 15.5476 21.8091L15.937 22.0258L16.3264 21.8957H16.3696C16.3696 21.9391 16.3264 22.1558 16.3264 22.2424L15.6774 22.1124L14.9851 22.5025C14.5957 22.7625 14.5524 23.1959 14.7255 23.4993L14.812 23.6726L14.8986 23.8893L15.1149 23.8026C15.0284 24.0627 15.0716 24.366 15.2014 24.4961L15.3312 24.6694L15.5043 24.8861L15.7206 24.6694C15.7639 24.6261 15.9802 24.4094 16.0668 24.1927L16.11 24.0627L16.0235 23.976L16.1533 23.8026L16.9753 23.976L17.1484 24.0193L17.2349 23.846L17.2782 23.7593C17.2782 23.7593 17.2782 23.7593 17.3215 23.7593C17.3647 23.7593 17.3647 23.7593 17.408 23.7593C17.7541 23.8026 18.0137 23.846 18.3166 23.846C18.5329 23.846 18.7493 23.846 18.9223 23.7593C18.9223 23.7593 19.3983 24.2794 19.3983 24.3227L19.1387 25.2328V25.2762C18.6195 25.3195 18.3599 25.4062 18.0137 25.7529C17.5378 25.2762 17.2349 25.2328 15.9802 25.2328C14.5092 25.2328 13.5141 24.4094 13.5141 22.9792V19.5988H22.4701V22.9359C22.5999 24.106 21.9077 24.9294 20.9126 25.1461ZM15.3745 23.2392L15.4178 23.3259C15.3745 23.4126 15.0284 23.5426 15.0284 23.5426L14.9418 23.3693C14.8553 23.1959 14.8986 22.8925 15.1149 22.7192L15.6774 22.3725L16.2831 22.5025C16.2831 22.6758 16.3696 22.8492 16.3696 22.8492L15.7639 22.7192L15.3745 22.9792C15.3312 23.0659 15.3312 23.1959 15.3745 23.2392ZM20.7828 24.1927L20.6097 25.2328C20.4799 25.2328 20.3934 25.2762 20.2203 25.2762L20.3934 24.2794C20.4366 24.0193 19.7011 23.8893 19.3117 23.3259C19.1387 23.4993 18.7925 23.5859 18.4031 23.5859C18.057 23.5859 17.7541 23.5426 17.5811 23.4993C17.5378 23.4993 17.4945 23.4993 17.4513 23.4993C17.3647 23.4993 17.2349 23.5426 17.1917 23.6293L17.1484 23.8026L16.11 23.5859L15.8504 24.0193C15.8072 24.106 15.8072 24.1493 15.8504 24.1927L15.937 24.2794C15.8937 24.4094 15.6774 24.6694 15.6774 24.6694L15.5476 24.4961C15.4178 24.366 15.461 24.106 15.5908 23.8893L16.0235 23.1959L16.9321 23.3259L16.7158 22.9359C16.5427 22.5025 16.8023 21.9824 16.8456 21.679C16.8456 21.7657 16.759 21.7657 16.6725 21.7657C16.586 21.7657 16.4994 21.7657 16.4562 21.7657C16.4129 21.7657 16.4129 21.7657 16.4129 21.7657L16.1966 21.8957L15.9802 21.7224C15.9802 21.679 15.937 21.6357 16.0235 21.549L16.4562 21.029L15.937 20.4222L16.6725 20.8123L16.8888 20.5522C16.9321 20.5956 16.9321 20.7689 16.9321 20.7689C17.1484 20.7689 17.7541 21.159 17.8407 21.9391C17.8407 21.9824 17.8407 21.9824 17.8407 22.0258C17.8407 22.0258 17.8407 22.0258 17.8407 22.0691C17.8839 22.1124 18.0137 22.2858 18.1868 22.2858L19.2252 22.3725C19.3117 22.3725 19.5713 22.2424 19.8309 22.2424C19.9607 22.2424 20.177 22.2858 20.3501 22.3725C20.3501 22.3725 20.4366 22.2858 20.5664 22.2858H20.6097C21.0856 22.2858 21.2587 22.7192 21.5183 23.0225C21.6914 23.2826 21.951 23.6726 21.951 23.6726C21.8644 23.7593 21.7779 23.846 21.6048 23.846C21.5616 23.846 21.5183 23.846 21.475 23.846C20.9991 23.7593 20.9126 22.7625 20.653 22.6758H20.6097C20.5232 22.6758 20.4799 22.7625 20.4799 22.7625C20.6097 23.1092 20.5232 23.2392 20.653 23.4993C20.7395 23.6726 20.9126 23.8893 21.0424 23.9327C20.826 23.9327 20.7828 24.0627 20.7828 24.1927ZM19.8742 25.2328C19.7444 25.2328 19.6146 25.2328 19.4848 25.2328L19.7444 24.2794C19.7876 24.1493 19.5713 24.0193 19.4848 23.846C19.6146 23.9327 20.004 24.106 20.177 24.236C20.177 24.3227 19.8742 25.2328 19.8742 25.2328ZM15.461 16.9551L15.5043 15.3516L15.8937 14.9615L16.11 15.4383L15.6341 16.9551H15.461ZM15.7206 17.3885C15.7639 17.5185 15.8937 17.5619 15.937 17.6052C15.937 17.6919 15.937 17.8652 15.8937 18.0819C15.8937 18.1253 15.8937 18.1253 15.8504 18.1686V18.2119C15.7639 18.2119 15.5043 18.212 15.3312 18.1253C15.1582 18.0386 14.8553 17.6919 14.8986 17.3018C14.9851 17.2585 15.1582 17.1718 15.3745 17.1718C15.5476 17.2152 15.6341 17.2585 15.7206 17.3885ZM19.8742 17.8652C19.6146 18.0386 18.8791 18.5587 18.6195 18.7754L16.1533 18.2986V18.2553C16.1966 18.1253 16.1966 17.9086 16.1966 17.7352L18.3166 17.7786L18.3599 17.7352C18.4031 17.6919 19.0521 17.0851 19.3983 16.6951C19.4848 16.7818 19.5713 16.8685 19.7444 16.9551C19.6579 17.2152 19.6579 17.5619 19.8742 17.8652ZM16.4994 14.1815C16.759 14.4415 17.1051 14.6582 17.408 14.7449C17.3647 14.8749 17.3215 15.1782 17.4513 15.4816C17.5378 15.6983 17.7974 15.915 18.057 16.045C18.1003 16.305 18.2733 16.7818 18.7925 16.9985C18.5762 17.2152 18.3599 17.4319 18.2733 17.5185L16.11 17.4752C16.0668 17.3885 15.9802 17.3452 15.9802 17.3018C15.9802 17.3018 15.9802 17.3018 15.9802 17.2585L16.3264 17.3018C16.3696 17.3018 16.4562 17.2585 16.4562 17.2152C16.4562 17.1285 16.4129 17.0851 16.3696 17.0851L15.937 17.0418L16.4129 15.4383L15.9802 14.4848L15.2447 15.1782L15.1582 16.8685L14.6822 16.7818C14.5957 16.7818 14.5524 16.8251 14.5524 16.8685C14.5524 16.9551 14.5957 16.9985 14.639 16.9985L14.812 17.0418C14.7255 17.0851 14.6822 17.1285 14.6822 17.1285V17.1718V17.2152C14.5957 17.6919 14.812 18.1253 15.1149 18.342V18.3853C15.1149 18.472 15.1149 18.5153 15.1582 18.5587C15.2014 18.602 15.2447 18.6453 15.3312 18.6453H15.3745C15.5043 18.6453 15.5908 18.5587 15.6341 18.472C15.7206 18.472 15.8072 18.472 15.8937 18.472H15.937L18.6627 18.992L18.706 18.9487C18.9223 18.8187 19.7444 18.2119 20.004 17.9953C20.0905 18.0386 20.1338 18.1253 20.2636 18.1686C20.177 18.4286 20.177 18.9054 20.4799 19.2954H13.6439V15.2649C13.6439 14.8749 13.5573 14.4848 13.4275 14.1381H16.4994V14.1815ZM16.11 8.0707L17.9272 8.67744V11.5378L16.586 10.8444L16.11 8.0707ZM20.5664 7.72399C20.5664 7.03057 19.3983 6.42383 18.1003 6.42383C16.8023 6.42383 15.6341 7.03057 15.6341 7.72399L15.6774 7.89734L16.1966 10.8444L15.6774 11.1911L14.3361 11.9712C14.3361 11.9712 14.0765 12.1012 13.9035 12.1879C13.3843 12.5779 13.2977 13.098 13.5573 13.2713C13.6439 12.838 13.99 12.4479 14.5957 12.4479C15.0716 12.4479 15.3745 12.6646 15.6774 13.0113C15.7639 13.098 15.8072 13.1847 15.8504 13.2713C15.937 13.4014 15.9802 13.488 16.0668 13.618H12.6055C12.8218 14.1381 13.1247 14.7015 13.1247 15.2649V22.9792C13.1247 24.8428 14.5092 25.7529 16.0668 25.7529C17.2349 25.7529 17.408 25.7095 18.1003 26.3596C18.7493 25.7095 18.8791 25.7529 20.1338 25.7529C21.6914 25.7529 23.0759 24.8428 23.0759 22.9792V15.3083C23.0759 14.7015 23.2922 14.1815 23.5951 13.6614H20.1338C20.2203 13.5747 20.2636 13.4447 20.3501 13.3147C20.3934 13.228 20.4799 13.1413 20.5232 13.0546C20.7828 12.7079 21.1289 12.4912 21.6048 12.4912C22.2106 12.4912 22.5567 12.9246 22.6432 13.3147C22.9028 13.098 22.8163 12.5779 22.2971 12.2312C22.1673 12.1445 21.8644 12.0145 21.8644 12.0145L20.5232 11.2344L20.004 10.9744L20.5232 8.02736L20.5664 7.72399Z" fill="#1A1919"/>
</svg>
