<svg width="141" height="43" viewBox="0 0 141 43" fill="none" xmlns="http://www.w3.org/2000/svg">
<path d="M12.768 6.4L21.28 26H18.508L11.424 9.536H11.312L5.852 23.396C5.47867 24.348 5.04933 25.076 4.564 25.58C4.09733 26.084 3.56533 26.336 2.968 26.336C2.59467 26.336 2.22133 26.308 1.848 26.252C1.49333 26.196 1.15733 26.112 0.84 26L1.596 24.096C1.78267 24.1893 1.988 24.3013 2.212 24.432C2.436 24.5627 2.66933 24.628 2.912 24.628C3.528 24.628 3.976 24.376 4.256 23.872C4.55467 23.368 4.86267 22.696 5.18 21.856L11.228 6.4H12.768ZM25.4811 6.4H38.1371V7.94H28.0291V14.968H36.7091V16.312H28.0291V24.46H38.1371V26H25.4811V6.4ZM42.3248 6.4H54.2808V7.94H44.8728V26H42.3248V6.4ZM58.485 6.4H71.141V7.94H61.033V14.968H69.713V16.312H61.033V24.46H71.141V26H58.485V6.4ZM77.8768 16.256V26H75.3288V6.4H77.8768V14.968H89.6088V6.4H92.1568V26H89.6088V16.256H77.8768ZM107.72 6.4L115.476 24.684H118.22V28.94H115.84V26H98.7597V28.94H96.3517V24.684H98.9837L106.012 6.4H107.72ZM112.788 24.684L106.292 9.452H106.18L100.3 24.684H112.788ZM133.307 20.232H123.647L121.183 26H119.895L128.183 6.4H129.583L138.711 26H135.995L133.307 20.232ZM132.719 18.972L128.323 9.536H128.211L124.179 18.972H132.719Z" fill="white"/>
<path d="M10.2402 42L7.99624 38.249L9.20624 37.534L11.8902 42H10.2402ZM6.56624 38.755V37.523H8.88724V38.755H6.56624ZM9.28324 38.315L7.95224 38.139L10.2072 34.3H11.7252L9.28324 38.315ZM2.32024 42H0.67024L3.35424 37.534L4.57524 38.249L2.32024 42ZM6.98424 42H5.58724V34.3H6.98424V42ZM6.00524 38.755H3.67324V37.523H6.00524V38.755ZM3.28824 38.315L0.83524 34.3H2.35324L4.59724 38.139L3.28824 38.315ZM14.5448 42V34.3H15.9528V39.767L20.0888 34.3H21.4198V42H20.0118V36.544L15.8758 42H14.5448ZM25.0105 42.11C24.8858 42.11 24.7612 42.099 24.6365 42.077C24.5118 42.055 24.3762 42.0293 24.2295 42L24.3285 40.757C24.4312 40.7863 24.5412 40.801 24.6585 40.801C24.9665 40.801 25.2122 40.6763 25.3955 40.427C25.5788 40.1703 25.7108 39.7963 25.7915 39.305C25.8722 38.8137 25.9272 38.2087 25.9565 37.49L26.0665 34.3H31.7315V42H30.3235V35.158L30.6535 35.51H26.9905L27.2985 35.147L27.2215 37.435C27.1995 38.1977 27.1482 38.8687 27.0675 39.448C26.9868 40.0273 26.8622 40.515 26.6935 40.911C26.5322 41.2997 26.3158 41.5967 26.0445 41.802C25.7732 42.0073 25.4285 42.11 25.0105 42.11ZM39.1226 42.11C38.5213 42.11 37.9676 42.011 37.4616 41.813C36.9556 41.615 36.5156 41.34 36.1416 40.988C35.7676 40.6287 35.478 40.2107 35.2726 39.734C35.0673 39.25 34.9646 38.722 34.9646 38.15C34.9646 37.578 35.0673 37.0537 35.2726 36.577C35.478 36.093 35.7676 35.675 36.1416 35.323C36.5156 34.9637 36.9556 34.685 37.4616 34.487C37.9676 34.289 38.5176 34.19 39.1116 34.19C39.713 34.19 40.263 34.289 40.7616 34.487C41.2676 34.685 41.7076 34.9637 42.0816 35.323C42.4556 35.675 42.7453 36.093 42.9506 36.577C43.156 37.0537 43.2586 37.578 43.2586 38.15C43.2586 38.722 43.156 39.25 42.9506 39.734C42.7453 40.218 42.4556 40.636 42.0816 40.988C41.7076 41.34 41.2676 41.615 40.7616 41.813C40.263 42.011 39.7166 42.11 39.1226 42.11ZM39.1116 40.856C39.5003 40.856 39.8596 40.79 40.1896 40.658C40.5196 40.526 40.8056 40.339 41.0476 40.097C41.2896 39.8477 41.4766 39.5617 41.6086 39.239C41.748 38.909 41.8176 38.546 41.8176 38.15C41.8176 37.754 41.748 37.3947 41.6086 37.072C41.4766 36.742 41.2896 36.456 41.0476 36.214C40.8056 35.9647 40.5196 35.774 40.1896 35.642C39.8596 35.51 39.5003 35.444 39.1116 35.444C38.723 35.444 38.3636 35.51 38.0336 35.642C37.711 35.774 37.425 35.9647 37.1756 36.214C36.9336 36.456 36.743 36.742 36.6036 37.072C36.4716 37.3947 36.4056 37.754 36.4056 38.15C36.4056 38.5387 36.4716 38.898 36.6036 39.228C36.743 39.558 36.9336 39.8477 37.1756 40.097C37.4176 40.339 37.7036 40.526 38.0336 40.658C38.3636 40.79 38.723 40.856 39.1116 40.856ZM46.5006 42V34.3H47.9086V39.767L52.0446 34.3H53.3756V42H51.9676V36.544L47.8316 42H46.5006ZM49.9216 33.783C49.2616 33.783 48.763 33.6437 48.4256 33.365C48.0956 33.0863 47.927 32.694 47.9196 32.188H48.9206C48.928 32.4593 49.016 32.6683 49.1846 32.815C49.3606 32.9617 49.6063 33.035 49.9216 33.035C50.237 33.035 50.4826 32.9617 50.6586 32.815C50.842 32.6683 50.9373 32.4593 50.9446 32.188H51.9346C51.9273 32.694 51.755 33.0863 51.4176 33.365C51.0803 33.6437 50.5816 33.783 49.9216 33.783ZM66.9676 42L64.3606 38.249L65.5156 37.534L68.5846 42H66.9676ZM61.8746 42V34.3H63.2826V42H61.8746ZM62.8536 38.755V37.523H65.4496V38.755H62.8536ZM65.6476 38.315L64.3386 38.139L66.9676 34.3H68.4856L65.6476 38.315ZM74.7588 42.11C74.1574 42.11 73.6038 42.011 73.0978 41.813C72.5918 41.615 72.1518 41.34 71.7778 40.988C71.4038 40.6287 71.1141 40.2107 70.9088 39.734C70.7034 39.25 70.6008 38.722 70.6008 38.15C70.6008 37.578 70.7034 37.0537 70.9088 36.577C71.1141 36.093 71.4038 35.675 71.7778 35.323C72.1518 34.9637 72.5918 34.685 73.0978 34.487C73.6038 34.289 74.1538 34.19 74.7478 34.19C75.3491 34.19 75.8991 34.289 76.3978 34.487C76.9038 34.685 77.3438 34.9637 77.7178 35.323C78.0918 35.675 78.3814 36.093 78.5868 36.577C78.7921 37.0537 78.8948 37.578 78.8948 38.15C78.8948 38.722 78.7921 39.25 78.5868 39.734C78.3814 40.218 78.0918 40.636 77.7178 40.988C77.3438 41.34 76.9038 41.615 76.3978 41.813C75.8991 42.011 75.3528 42.11 74.7588 42.11ZM74.7478 40.856C75.1364 40.856 75.4958 40.79 75.8258 40.658C76.1558 40.526 76.4418 40.339 76.6838 40.097C76.9258 39.8477 77.1128 39.5617 77.2448 39.239C77.3841 38.909 77.4538 38.546 77.4538 38.15C77.4538 37.754 77.3841 37.3947 77.2448 37.072C77.1128 36.742 76.9258 36.456 76.6838 36.214C76.4418 35.9647 76.1558 35.774 75.8258 35.642C75.4958 35.51 75.1364 35.444 74.7478 35.444C74.3591 35.444 73.9998 35.51 73.6698 35.642C73.3471 35.774 73.0611 35.9647 72.8118 36.214C72.5698 36.456 72.3791 36.742 72.2398 37.072C72.1078 37.3947 72.0418 37.754 72.0418 38.15C72.0418 38.5387 72.1078 38.898 72.2398 39.228C72.3791 39.558 72.5698 39.8477 72.8118 40.097C73.0538 40.339 73.3398 40.526 73.6698 40.658C73.9998 40.79 74.3591 40.856 74.7478 40.856ZM82.1368 42V34.3H83.3028L86.6798 39.921H86.0528L89.3748 34.3H90.5408L90.5628 42H89.1988L89.1878 36.423H89.4738L86.6578 41.12H86.0198L83.1598 36.423H83.4898V42H82.1368ZM94.3786 42V34.3H101.188V42H99.7796V35.158L100.11 35.51H95.4566L95.7866 35.158V42H94.3786ZM104.791 42.11C104.666 42.11 104.541 42.099 104.417 42.077C104.292 42.055 104.156 42.0293 104.01 42L104.109 40.757C104.211 40.7863 104.321 40.801 104.439 40.801C104.747 40.801 104.992 40.6763 105.176 40.427C105.359 40.1703 105.491 39.7963 105.572 39.305C105.652 38.8137 105.707 38.2087 105.737 37.49L105.847 34.3H111.512V42H110.104V35.158L110.434 35.51H106.771L107.079 35.147L107.002 37.435C106.98 38.1977 106.928 38.8687 106.848 39.448C106.767 40.0273 106.642 40.515 106.474 40.911C106.312 41.2997 106.096 41.5967 105.825 41.802C105.553 42.0073 105.209 42.11 104.791 42.11ZM116.648 37.501H120.476V38.678H116.648V37.501ZM116.758 40.801H121.103V42H115.328V34.3H120.949V35.499H116.758V40.801ZM129.44 42L126.833 38.249L127.988 37.534L131.057 42H129.44ZM124.347 42V34.3H125.755V42H124.347ZM125.326 38.755V37.523H127.922V38.755H125.326ZM128.12 38.315L126.811 38.139L129.44 34.3H130.958L128.12 38.315ZM137.198 42.11C136.611 42.11 136.065 42.0147 135.559 41.824C135.06 41.626 134.624 41.351 134.25 40.999C133.883 40.6397 133.597 40.218 133.392 39.734C133.187 39.25 133.084 38.722 133.084 38.15C133.084 37.578 133.187 37.05 133.392 36.566C133.597 36.082 133.887 35.664 134.261 35.312C134.635 34.9527 135.071 34.6777 135.57 34.487C136.069 34.289 136.615 34.19 137.209 34.19C137.84 34.19 138.415 34.3 138.936 34.52C139.457 34.7327 139.897 35.0517 140.256 35.477L139.332 36.346C139.053 36.0453 138.742 35.8217 138.397 35.675C138.052 35.521 137.678 35.444 137.275 35.444C136.872 35.444 136.501 35.51 136.164 35.642C135.834 35.774 135.544 35.961 135.295 36.203C135.053 36.445 134.862 36.731 134.723 37.061C134.591 37.391 134.525 37.754 134.525 38.15C134.525 38.546 134.591 38.909 134.723 39.239C134.862 39.569 135.053 39.855 135.295 40.097C135.544 40.339 135.834 40.526 136.164 40.658C136.501 40.79 136.872 40.856 137.275 40.856C137.678 40.856 138.052 40.7827 138.397 40.636C138.742 40.482 139.053 40.251 139.332 39.943L140.256 40.823C139.897 41.241 139.457 41.56 138.936 41.78C138.415 42 137.836 42.11 137.198 42.11Z" fill="white"/>
</svg>
